<svg xmlns="http://www.w3.org/2000/svg" viewBox="0 0 120 120"><defs><style>.cls-1{fill:#0188cb;}.cls-2{isolation:isolate;}.cls-3{fill:#fff;}</style></defs><g id="Layer_2" data-name="Layer 2"><g id="Layer_1-2" data-name="Layer 1"><circle class="cls-1" cx="60" cy="60" r="60"/><g class="cls-2"><path class="cls-3" d="M34.85,30.26l37.22.09L90.46,57,53.24,56.9,34.85,30.26m-1.7-2A1.11,1.11,0,0,0,32.24,30L51.86,58.42a1.09,1.09,0,0,0,.91.48L92.16,59h0a1.1,1.1,0,0,0,.91-1.73L73.46,28.82a1.13,1.13,0,0,0-.91-.47l-39.4-.1Z"/><path class="cls-3" d="M92.18,60.9l-39.41-.09a1.05,1.05,0,0,0-.91.48L32.22,89.92a1.11,1.11,0,0,0,.91,1.74l39.41.09a1.12,1.12,0,0,0,.92-.48L93.09,62.63A1.11,1.11,0,0,0,92.18,60.9ZM63.29,82.22,58.78,88.8a.26.26,0,0,1-.21.11l-9.06,0a.26.26,0,0,1-.21-.4l4.51-6.58A.26.26,0,0,1,54,81.8l9.06,0A.26.26,0,0,1,63.29,82.22Z"/></g></g></g></svg>